# xmcd CD database file
#
# Track frame offsets:
#	150
#	32790
#	64977
#	84725
#	137774
#	173452
#	226113
#
# Disc length: 3719 seconds
#
# Revision: 2
# Processed by: cddbd v1.5.1PL0 Copyright (c) Steve Scherf et al.
# Submitted via: CDex 1.51
#
DISCID=530e8507
DTITLE=Jon Hassell - Magic realism 2
DYEAR=2005
DGENRE=Jazz
TTITLE0=Divine S.O.S.
TTITLE1=Maarifa street
TTITLE2=Warm shift
TTITLE3=Open secret (Paris)
TTITLE4=New gods
TTITLE5=Darbari bridge
TTITLE6=Open secret (Milano)
EXTD=YEAR: 2005
EXTT0=
EXTT1=
EXTT2=
EXTT3=
EXTT4=
EXTT5=
EXTT6=
PLAYORDER=
